# xmcd CD database file
#
# Track frame offsets:
#	150
#	36767
#	75415
#	94243
#	142022
#	174009
#	192511
#	222063
#	247036
#	275301
#	299983
#	324704
#	338232
#
# Disc length: 4798 seconds
#
# Revision: 0
# Processed by: cddbd v1.5.2PL0 Copyright (c) Steve Scherf et al.
# Submitted via: CDex 1.70beta2
#
DISCID=c612bc0d
DTITLE=Yusef Lateef - Jazz Moods and Before Dawn
DYEAR=1900
DGENRE=Jazz
TTITLE0=Metaphor
TTITLE1=Yusef's Mood
TTITLE2=The Beginning
TTITLE3=Morning
TTITLE4=Blues in Space
TTITLE5=Passion
TTITLE6=Love is Eternal
TTITLE7=Pike's Peak
TTITLE8=Open Strings
TTITLE9=Before Dawn
TTITLE10=Twenty-Five Minute Blues
TTITLE11=Chang, Chang, Chang
TTITLE12=Constellation
EXTD=
EXTT0=
EXTT1=
EXTT2=
EXTT3=
EXTT4=
EXTT5=
EXTT6=
EXTT7=
EXTT8=
EXTT9=
EXTT10=
EXTT11=
EXTT12=
PLAYORDER=
